<mxfile host="app.diagrams.net" modified="2022-06-16T09:23:56.990Z" agent="5.0 (Macintosh; Intel Mac OS X 10_15_0) AppleWebKit/537.36 (KHTML, like Gecko) Chrome/102.0.5005.61 Safari/537.36" etag="nxO_YuCsFagYdjnRsNIm" version="18.0.3" type="github">
  <diagram name="Page-1" id="74e2e168-ea6b-b213-b513-2b3c1d86103e">
    <mxGraphModel dx="946" dy="591" grid="1" gridSize="10" guides="1" tooltips="1" connect="1" arrows="1" fold="1" page="1" pageScale="1" pageWidth="1100" pageHeight="850" background="none" math="0" shadow="0">
      <root>
        <mxCell id="0" />
        <mxCell id="1" parent="0" />
        <mxCell id="77e6c97f196da883-1" value="更新進程下次執行時間(process)" style="swimlane;html=1;childLayout=stackLayout;startSize=20;rounded=0;shadow=0;labelBackgroundColor=none;strokeWidth=1;fontFamily=Verdana;fontSize=8;align=center;" parent="1" vertex="1">
          <mxGeometry x="70" y="30" width="910" height="800" as="geometry" />
        </mxCell>
        <mxCell id="gBekFUFuCe9R_9GA5LDx-32" style="edgeStyle=orthogonalEdgeStyle;rounded=0;orthogonalLoop=1;jettySize=auto;html=1;entryX=0.5;entryY=0;entryDx=0;entryDy=0;" edge="1" parent="77e6c97f196da883-1" source="77e6c97f196da883-11" target="gBekFUFuCe9R_9GA5LDx-30">
          <mxGeometry relative="1" as="geometry" />
        </mxCell>
        <mxCell id="gBekFUFuCe9R_9GA5LDx-29" value="" style="edgeStyle=orthogonalEdgeStyle;rounded=0;orthogonalLoop=1;jettySize=auto;html=1;" edge="1" parent="77e6c97f196da883-1" source="gBekFUFuCe9R_9GA5LDx-16" target="gBekFUFuCe9R_9GA5LDx-28">
          <mxGeometry relative="1" as="geometry" />
        </mxCell>
        <mxCell id="77e6c97f196da883-2" value="Scheduler" style="swimlane;html=1;startSize=20;" parent="77e6c97f196da883-1" vertex="1">
          <mxGeometry y="20" width="480" height="780" as="geometry" />
        </mxCell>
        <mxCell id="gBekFUFuCe9R_9GA5LDx-1" value="結束流程" style="rounded=1;whiteSpace=wrap;html=1;shadow=0;labelBackgroundColor=none;strokeWidth=1;fontFamily=Verdana;fontSize=8;align=center;" vertex="1" parent="77e6c97f196da883-2">
          <mxGeometry x="62.5" y="670" width="90" height="60" as="geometry" />
        </mxCell>
        <mxCell id="gBekFUFuCe9R_9GA5LDx-38" value="" style="edgeStyle=orthogonalEdgeStyle;rounded=0;orthogonalLoop=1;jettySize=auto;html=1;" edge="1" parent="77e6c97f196da883-2" source="gBekFUFuCe9R_9GA5LDx-6" target="gBekFUFuCe9R_9GA5LDx-2">
          <mxGeometry relative="1" as="geometry" />
        </mxCell>
        <mxCell id="gBekFUFuCe9R_9GA5LDx-58" value="否" style="edgeLabel;html=1;align=center;verticalAlign=middle;resizable=0;points=[];" vertex="1" connectable="0" parent="gBekFUFuCe9R_9GA5LDx-38">
          <mxGeometry x="-0.3376" y="-2" relative="1" as="geometry">
            <mxPoint as="offset" />
          </mxGeometry>
        </mxCell>
        <mxCell id="gBekFUFuCe9R_9GA5LDx-40" value="" style="edgeStyle=orthogonalEdgeStyle;rounded=0;orthogonalLoop=1;jettySize=auto;html=1;" edge="1" parent="77e6c97f196da883-2" source="gBekFUFuCe9R_9GA5LDx-6" target="77e6c97f196da883-11">
          <mxGeometry relative="1" as="geometry" />
        </mxCell>
        <mxCell id="gBekFUFuCe9R_9GA5LDx-57" value="是" style="edgeLabel;html=1;align=center;verticalAlign=middle;resizable=0;points=[];" vertex="1" connectable="0" parent="gBekFUFuCe9R_9GA5LDx-40">
          <mxGeometry x="-0.0521" y="2" relative="1" as="geometry">
            <mxPoint y="1" as="offset" />
          </mxGeometry>
        </mxCell>
        <mxCell id="gBekFUFuCe9R_9GA5LDx-6" value="進程是否未執行過（process.next_exec_time是否為空)" style="rhombus;whiteSpace=wrap;html=1;fontSize=8;fontFamily=Verdana;rounded=0;shadow=0;labelBackgroundColor=none;strokeWidth=1;direction=south;" vertex="1" parent="77e6c97f196da883-2">
          <mxGeometry x="41.25" y="315" width="132.5" height="120" as="geometry" />
        </mxCell>
        <mxCell id="gBekFUFuCe9R_9GA5LDx-36" value="" style="edgeStyle=orthogonalEdgeStyle;rounded=0;orthogonalLoop=1;jettySize=auto;html=1;" edge="1" parent="77e6c97f196da883-2" source="gBekFUFuCe9R_9GA5LDx-2" target="gBekFUFuCe9R_9GA5LDx-16">
          <mxGeometry relative="1" as="geometry" />
        </mxCell>
        <mxCell id="gBekFUFuCe9R_9GA5LDx-59" value="是" style="edgeLabel;html=1;align=center;verticalAlign=middle;resizable=0;points=[];" vertex="1" connectable="0" parent="gBekFUFuCe9R_9GA5LDx-36">
          <mxGeometry x="0.1619" relative="1" as="geometry">
            <mxPoint y="1" as="offset" />
          </mxGeometry>
        </mxCell>
        <mxCell id="gBekFUFuCe9R_9GA5LDx-37" value="否" style="edgeStyle=orthogonalEdgeStyle;rounded=0;orthogonalLoop=1;jettySize=auto;html=1;" edge="1" parent="77e6c97f196da883-2" source="gBekFUFuCe9R_9GA5LDx-2" target="gBekFUFuCe9R_9GA5LDx-1">
          <mxGeometry relative="1" as="geometry" />
        </mxCell>
        <mxCell id="gBekFUFuCe9R_9GA5LDx-2" value="進程下次執行時間是否比現在晚(process.next_exec_time&amp;lt;now())" style="rhombus;whiteSpace=wrap;html=1;fontSize=8;fontFamily=Verdana;rounded=0;shadow=0;labelBackgroundColor=none;strokeWidth=1;" vertex="1" parent="77e6c97f196da883-2">
          <mxGeometry x="50" y="500" width="115" height="110" as="geometry" />
        </mxCell>
        <mxCell id="77e6c97f196da883-11" value="從現在時間套入process.exec_cron規則算下次執行時間" style="rounded=1;whiteSpace=wrap;html=1;shadow=0;labelBackgroundColor=none;strokeWidth=1;fontFamily=Verdana;fontSize=8;align=center;" parent="77e6c97f196da883-2" vertex="1">
          <mxGeometry x="265" y="332.5" width="150" height="85" as="geometry" />
        </mxCell>
        <mxCell id="gBekFUFuCe9R_9GA5LDx-16" value="從下次執行時間(process.next_exec_time)套入process.exec_cron規則算下次執行時間" style="whiteSpace=wrap;html=1;fontSize=8;fontFamily=Verdana;rounded=1;shadow=0;labelBackgroundColor=none;strokeWidth=1;" vertex="1" parent="77e6c97f196da883-2">
          <mxGeometry x="270" y="510" width="150" height="90" as="geometry" />
        </mxCell>
        <mxCell id="77e6c97f196da883-8" value="開始流程（每分鐘）" style="rounded=1;whiteSpace=wrap;html=1;shadow=0;labelBackgroundColor=none;strokeWidth=1;fontFamily=Verdana;fontSize=8;align=center;" parent="77e6c97f196da883-2" vertex="1">
          <mxGeometry x="210" y="50" width="136.25" height="80" as="geometry" />
        </mxCell>
        <mxCell id="gBekFUFuCe9R_9GA5LDx-55" style="edgeStyle=orthogonalEdgeStyle;rounded=0;orthogonalLoop=1;jettySize=auto;html=1;exitX=0;exitY=0.5;exitDx=0;exitDy=0;entryX=0;entryY=0.5;entryDx=0;entryDy=0;" edge="1" parent="77e6c97f196da883-2" source="gBekFUFuCe9R_9GA5LDx-43" target="gBekFUFuCe9R_9GA5LDx-1">
          <mxGeometry relative="1" as="geometry" />
        </mxCell>
        <mxCell id="gBekFUFuCe9R_9GA5LDx-56" value="否" style="edgeLabel;html=1;align=center;verticalAlign=middle;resizable=0;points=[];" vertex="1" connectable="0" parent="gBekFUFuCe9R_9GA5LDx-55">
          <mxGeometry x="-0.5537" y="1" relative="1" as="geometry">
            <mxPoint as="offset" />
          </mxGeometry>
        </mxCell>
        <mxCell id="gBekFUFuCe9R_9GA5LDx-43" value="是否有查到資料" style="rhombus;whiteSpace=wrap;html=1;fontSize=8;fontFamily=Verdana;rounded=0;shadow=0;labelBackgroundColor=none;strokeWidth=1;" vertex="1" parent="77e6c97f196da883-2">
          <mxGeometry x="47.5" y="160" width="120" height="110" as="geometry" />
        </mxCell>
        <mxCell id="gBekFUFuCe9R_9GA5LDx-49" value="是" style="edgeStyle=orthogonalEdgeStyle;rounded=0;orthogonalLoop=1;jettySize=auto;html=1;" edge="1" parent="77e6c97f196da883-2" source="gBekFUFuCe9R_9GA5LDx-43" target="gBekFUFuCe9R_9GA5LDx-6">
          <mxGeometry relative="1" as="geometry" />
        </mxCell>
        <mxCell id="77e6c97f196da883-3" value="DB" style="swimlane;html=1;startSize=20;" parent="77e6c97f196da883-1" vertex="1">
          <mxGeometry x="480" y="20" width="430" height="780" as="geometry" />
        </mxCell>
        <mxCell id="gBekFUFuCe9R_9GA5LDx-50" value="" style="edgeStyle=orthogonalEdgeStyle;rounded=0;orthogonalLoop=1;jettySize=auto;html=1;" edge="1" parent="77e6c97f196da883-3" source="gBekFUFuCe9R_9GA5LDx-28" target="gBekFUFuCe9R_9GA5LDx-30">
          <mxGeometry relative="1" as="geometry" />
        </mxCell>
        <mxCell id="gBekFUFuCe9R_9GA5LDx-28" value="上次執行時間(process.last_exec_time)&lt;br&gt;更新同下次執行時間(process.next_exec_time)" style="whiteSpace=wrap;html=1;fontSize=8;fontFamily=Verdana;rounded=1;shadow=0;labelBackgroundColor=none;strokeWidth=1;" vertex="1" parent="77e6c97f196da883-3">
          <mxGeometry x="30" y="510" width="140" height="90" as="geometry" />
        </mxCell>
        <mxCell id="gBekFUFuCe9R_9GA5LDx-30" value="下次執行時間(process.next_exec_time)更新為剛計算好新的下次執行時間" style="whiteSpace=wrap;html=1;fontSize=8;fontFamily=Verdana;rounded=1;shadow=0;labelBackgroundColor=none;strokeWidth=1;" vertex="1" parent="77e6c97f196da883-3">
          <mxGeometry x="235" y="510" width="160" height="90" as="geometry" />
        </mxCell>
        <mxCell id="gBekFUFuCe9R_9GA5LDx-45" value="找未執行過或&lt;br&gt;下次執行時間比現在晚的進程" style="whiteSpace=wrap;html=1;fontSize=8;fontFamily=Verdana;rounded=1;shadow=0;labelBackgroundColor=none;strokeWidth=1;" vertex="1" parent="77e6c97f196da883-3">
          <mxGeometry x="80" y="50" width="146.25" height="80" as="geometry" />
        </mxCell>
        <mxCell id="gBekFUFuCe9R_9GA5LDx-34" style="edgeStyle=orthogonalEdgeStyle;rounded=0;orthogonalLoop=1;jettySize=auto;html=1;entryX=1.006;entryY=0.625;entryDx=0;entryDy=0;entryPerimeter=0;" edge="1" parent="77e6c97f196da883-1" source="gBekFUFuCe9R_9GA5LDx-30" target="gBekFUFuCe9R_9GA5LDx-1">
          <mxGeometry relative="1" as="geometry">
            <mxPoint x="795" y="740" as="targetPoint" />
            <Array as="points">
              <mxPoint x="795" y="728" />
              <mxPoint x="436" y="728" />
            </Array>
          </mxGeometry>
        </mxCell>
        <mxCell id="gBekFUFuCe9R_9GA5LDx-48" value="" style="edgeStyle=orthogonalEdgeStyle;rounded=0;orthogonalLoop=1;jettySize=auto;html=1;" edge="1" parent="77e6c97f196da883-1" source="77e6c97f196da883-8" target="gBekFUFuCe9R_9GA5LDx-45">
          <mxGeometry relative="1" as="geometry" />
        </mxCell>
        <mxCell id="gBekFUFuCe9R_9GA5LDx-54" style="edgeStyle=orthogonalEdgeStyle;rounded=0;orthogonalLoop=1;jettySize=auto;html=1;entryX=1;entryY=0.5;entryDx=0;entryDy=0;exitX=0.5;exitY=1;exitDx=0;exitDy=0;" edge="1" parent="77e6c97f196da883-1" source="gBekFUFuCe9R_9GA5LDx-45" target="gBekFUFuCe9R_9GA5LDx-43">
          <mxGeometry relative="1" as="geometry">
            <mxPoint x="560" y="110" as="sourcePoint" />
            <Array as="points">
              <mxPoint x="633" y="235" />
            </Array>
          </mxGeometry>
        </mxCell>
      </root>
    </mxGraphModel>
  </diagram>
</mxfile>
